<svg id="visual" viewBox="0 0 960 540" width="960" height="540" xmlns="http://www.w3.org/2000/svg" xmlns:xlink="http://www.w3.org/1999/xlink" version="1.1"><rect x="0" y="0" width="960" height="540" fill="#001220"></rect><path d="M0 140L16 134C32 128 64 116 96 116.3C128 116.7 160 129.3 192 130.3C224 131.3 256 120.7 288 120.7C320 120.7 352 131.3 384 135.7C416 140 448 138 480 133.7C512 129.3 544 122.7 576 119.5C608 116.3 640 116.7 672 121.3C704 126 736 135 768 132.5C800 130 832 116 864 116.5C896 117 928 132 944 139.5L960 147L960 0L944 0C928 0 896 0 864 0C832 0 800 0 768 0C736 0 704 0 672 0C640 0 608 0 576 0C544 0 512 0 480 0C448 0 416 0 384 0C352 0 320 0 288 0C256 0 224 0 192 0C160 0 128 0 96 0C64 0 32 0 16 0L0 0Z" fill="#fa7268"></path><path d="M0 115L16 114.7C32 114.3 64 113.7 96 109.2C128 104.7 160 96.3 192 96.7C224 97 256 106 288 113.2C320 120.3 352 125.7 384 123.5C416 121.3 448 111.7 480 112.2C512 112.7 544 123.3 576 123.2C608 123 640 112 672 111.8C704 111.7 736 122.3 768 123.2C800 124 832 115 864 112.5C896 110 928 114 944 116L960 118L960 0L944 0C928 0 896 0 864 0C832 0 800 0 768 0C736 0 704 0 672 0C640 0 608 0 576 0C544 0 512 0 480 0C448 0 416 0 384 0C352 0 320 0 288 0C256 0 224 0 192 0C160 0 128 0 96 0C64 0 32 0 16 0L0 0Z" fill="#fb7064"></path><path d="M0 81L16 85.8C32 90.7 64 100.3 96 100.8C128 101.3 160 92.7 192 91.3C224 90 256 96 288 99.7C320 103.3 352 104.7 384 104.7C416 104.7 448 103.3 480 98.3C512 93.3 544 84.7 576 84C608 83.3 640 90.7 672 91.7C704 92.7 736 87.3 768 88C800 88.7 832 95.3 864 95C896 94.7 928 87.3 944 83.7L960 80L960 0L944 0C928 0 896 0 864 0C832 0 800 0 768 0C736 0 704 0 672 0C640 0 608 0 576 0C544 0 512 0 480 0C448 0 416 0 384 0C352 0 320 0 288 0C256 0 224 0 192 0C160 0 128 0 96 0C64 0 32 0 16 0L0 0Z" fill="#fc6d5f"></path><path d="M0 76L16 76C32 76 64 76 96 77.7C128 79.3 160 82.7 192 84.3C224 86 256 86 288 83.3C320 80.7 352 75.3 384 72.2C416 69 448 68 480 68.3C512 68.7 544 70.3 576 71.3C608 72.3 640 72.7 672 76.3C704 80 736 87 768 86.8C800 86.7 832 79.3 864 76.7C896 74 928 76 944 77L960 78L960 0L944 0C928 0 896 0 864 0C832 0 800 0 768 0C736 0 704 0 672 0C640 0 608 0 576 0C544 0 512 0 480 0C448 0 416 0 384 0C352 0 320 0 288 0C256 0 224 0 192 0C160 0 128 0 96 0C64 0 32 0 16 0L0 0Z" fill="#fd6b5a"></path><path d="M0 76L16 76.3C32 76.7 64 77.3 96 75.2C128 73 160 68 192 65.5C224 63 256 63 288 65.7C320 68.3 352 73.7 384 72.2C416 70.7 448 62.3 480 58C512 53.7 544 53.3 576 55.3C608 57.3 640 61.7 672 63.8C704 66 736 66 768 64.7C800 63.3 832 60.7 864 61C896 61.3 928 64.7 944 66.3L960 68L960 0L944 0C928 0 896 0 864 0C832 0 800 0 768 0C736 0 704 0 672 0C640 0 608 0 576 0C544 0 512 0 480 0C448 0 416 0 384 0C352 0 320 0 288 0C256 0 224 0 192 0C160 0 128 0 96 0C64 0 32 0 16 0L0 0Z" fill="#fd6956"></path><path d="M0 62L16 59.2C32 56.3 64 50.7 96 47.3C128 44 160 43 192 45.5C224 48 256 54 288 57.2C320 60.3 352 60.7 384 58.5C416 56.3 448 51.7 480 48C512 44.3 544 41.7 576 42.2C608 42.7 640 46.3 672 50.5C704 54.7 736 59.3 768 61.3C800 63.3 832 62.7 864 60.8C896 59 928 56 944 54.5L960 53L960 0L944 0C928 0 896 0 864 0C832 0 800 0 768 0C736 0 704 0 672 0C640 0 608 0 576 0C544 0 512 0 480 0C448 0 416 0 384 0C352 0 320 0 288 0C256 0 224 0 192 0C160 0 128 0 96 0C64 0 32 0 16 0L0 0Z" fill="#fe6751"></path><path d="M0 40L16 40.3C32 40.7 64 41.3 96 40C128 38.7 160 35.3 192 34.2C224 33 256 34 288 34.2C320 34.3 352 33.7 384 34.5C416 35.3 448 37.7 480 37.8C512 38 544 36 576 37C608 38 640 42 672 41C704 40 736 34 768 33.3C800 32.7 832 37.3 864 38.3C896 39.3 928 36.7 944 35.3L960 34L960 0L944 0C928 0 896 0 864 0C832 0 800 0 768 0C736 0 704 0 672 0C640 0 608 0 576 0C544 0 512 0 480 0C448 0 416 0 384 0C352 0 320 0 288 0C256 0 224 0 192 0C160 0 128 0 96 0C64 0 32 0 16 0L0 0Z" fill="#ff654c"></path><path d="M0 24L16 22.8C32 21.7 64 19.3 96 18.2C128 17 160 17 192 18C224 19 256 21 288 21.2C320 21.3 352 19.7 384 19.5C416 19.3 448 20.7 480 21.7C512 22.7 544 23.3 576 24.5C608 25.7 640 27.3 672 27.3C704 27.3 736 25.7 768 23.7C800 21.7 832 19.3 864 18.8C896 18.3 928 19.7 944 20.3L960 21L960 0L944 0C928 0 896 0 864 0C832 0 800 0 768 0C736 0 704 0 672 0C640 0 608 0 576 0C544 0 512 0 480 0C448 0 416 0 384 0C352 0 320 0 288 0C256 0 224 0 192 0C160 0 128 0 96 0C64 0 32 0 16 0L0 0Z" fill="#ff6347"></path></svg>