<svg id="visual" viewBox="0 0 960 540" width="960" height="540" xmlns="http://www.w3.org/2000/svg" xmlns:xlink="http://www.w3.org/1999/xlink" version="1.1"><path d="M0 227L16 214C32 201 64 175 96 170C128 165 160 181 192 193C224 205 256 213 288 200.3C320 187.7 352 154.3 384 140.3C416 126.3 448 131.7 480 138.7C512 145.7 544 154.3 576 152.2C608 150 640 137 672 139.2C704 141.3 736 158.7 768 182.7C800 206.7 832 237.3 864 235C896 232.7 928 197.3 944 179.7L960 162L960 0L944 0C928 0 896 0 864 0C832 0 800 0 768 0C736 0 704 0 672 0C640 0 608 0 576 0C544 0 512 0 480 0C448 0 416 0 384 0C352 0 320 0 288 0C256 0 224 0 192 0C160 0 128 0 96 0C64 0 32 0 16 0L0 0Z" fill="#ff6347" stroke-linecap="round" stroke-linejoin="miter"></path></svg>